<?xml version="1.0" standalone="no"?>
<!DOCTYPE svg PUBLIC "-//W3C//DTD SVG 20010904//EN"
 "http://www.w3.org/TR/2001/REC-SVG-20010904/DTD/svg10.dtd">
<svg version="1.0" xmlns="http://www.w3.org/2000/svg"
 width="1200.000000pt" height="1200.000000pt" viewBox="0 0 1200.000000 1200.000000"
 preserveAspectRatio="xMidYMid meet">
<metadata>
Created by potrace 1.14, written by Peter Selinger 2001-2017
</metadata>
<g transform="translate(0.000000,1200.000000) scale(0.100000,-0.100000)"
fill="#000000" stroke="none">
<path d="M0 6000 l0 -6000 6000 0 6000 0 0 6000 0 6000 -6000 0 -6000 0 0
-6000z m6490 4925 c1275 -130 2424 -729 3257 -1695 468 -542 802 -1157 1003
-1844 377 -1286 211 -2687 -455 -3847 -143 -247 -306 -481 -503 -719 -117
-141 -471 -497 -607 -609 -655 -543 -1395 -899 -2215 -1066 -306 -62 -593 -89
-965 -89 -305 -1 -463 9 -710 45 -1609 231 -3004 1240 -3724 2694 -122 247
-184 393 -265 635 -296 882 -335 1847 -110 2770 40 165 149 500 219 670 109
270 286 602 458 862 628 949 1592 1671 2668 1996 357 109 700 176 1024 201 77
6 158 13 180 15 92 9 601 -4 745 -19z"/>
<path d="M5720 10794 c-355 -31 -521 -55 -765 -110 -672 -151 -1287 -434
-1833 -844 -1016 -760 -1693 -1898 -1871 -3145 -34 -233 -41 -329 -48 -580
-19 -781 140 -1515 482 -2220 366 -754 946 -1416 1655 -1890 198 -132 328
-206 565 -321 519 -252 1011 -393 1615 -461 191 -21 732 -24 910 -5 520 57
908 149 1325 315 757 300 1416 776 1939 1402 1384 1656 1476 4070 224 5838
-456 643 -1102 1194 -1803 1537 -512 250 -1044 402 -1630 465 -142 16 -659 28
-765 19z m638 -310 c730 -65 1367 -272 1982 -644 1013 -613 1747 -1615 2029
-2770 207 -847 164 -1731 -125 -2560 -348 -1002 -1071 -1875 -1993 -2404 -591
-340 -1210 -531 -1916 -591 -724 -62 -1519 80 -2204 394 -1123 514 -1984 1463
-2384 2627 -466 1357 -261 2841 556 4026 523 759 1283 1346 2157 1664 606 220
1282 312 1898 258z"/>
<path d="M5870 7936 c-140 -32 -231 -79 -327 -169 -146 -137 -213 -289 -213
-489 0 -128 13 -184 67 -298 39 -81 58 -108 133 -181 70 -70 103 -95 171 -127
115 -55 217 -76 333 -69 360 22 636 312 636 668 0 195 -61 340 -200 479 -92
93 -181 145 -295 176 -80 21 -236 27 -305 10z m305 -167 c80 -29 154 -79 212
-143 93 -101 134 -210 134 -356 0 -447 -539 -686 -870 -385 -179 163 -225 420
-114 638 65 129 219 241 373 271 58 11 206 -3 265 -25z"/>
<path d="M5125 7325 c-30 -29 -32 -79 -10 -210 55 -312 285 -581 587 -686 46
-15 115 -33 154 -40 l71 -11 -1 -112 -1 -111 -166 -5 c-146 -4 -170 -7 -188
-24 -31 -28 -28 -79 5 -105 26 -20 37 -21 426 -21 l399 0 24 25 c30 29 32 64
6 96 -18 23 -26 24 -188 29 l-168 5 -1 111 -1 112 89 16 c404 74 704 408 734
818 7 83 6 87 -19 112 -32 32 -71 33 -101 3 -19 -19 -24 -38 -29 -109 -26
-330 -278 -618 -596 -678 -76 -14 -244 -12 -322 4 -227 49 -439 232 -526 456
-32 82 -42 126 -50 218 -4 60 -12 90 -25 108 -26 32 -71 32 -103 -1z"/>
<path d="M3240 5205 c0 -10 10 -15 33 -15 l34 0 -2 -232 -1 -233 -32 -3 c-20
-2 -32 -9 -32 -18 0 -11 22 -14 115 -14 96 0 115 3 115 15 0 10 -11 15 -35 15
l-35 0 0 98 c0 83 3 99 18 108 16 10 29 -2 105 -97 80 -100 85 -109 62 -109
-16 0 -25 -6 -25 -15 0 -12 19 -15 110 -15 91 0 110 3 110 15 0 10 -10 15 -27
16 -23 0 -45 20 -123 115 -52 63 -104 127 -114 140 l-19 26 94 94 c73 73 100
94 121 94 18 0 28 5 28 15 0 12 -15 15 -75 15 -60 0 -75 -3 -75 -15 0 -10 10
-15 28 -15 26 0 25 -2 -28 -52 -30 -28 -85 -81 -122 -117 l-68 -65 0 117 0
117 35 0 c24 0 35 5 35 15 0 12 -19 15 -115 15 -96 0 -115 -3 -115 -15z"/>
<path d="M5369 5192 c-173 -90 -181 -364 -15 -467 42 -25 62 -31 128 -34 92
-4 149 13 192 58 31 33 19 54 -13 22 -54 -54 -148 -72 -214 -43 -37 17 -49 29
-73 78 -26 53 -29 69 -29 159 1 142 33 200 128 226 70 19 156 -22 183 -88 8
-18 21 -33 29 -33 12 0 15 15 15 75 0 58 -3 75 -14 75 -8 0 -17 -9 -21 -19 -6
-19 -6 -19 -48 -1 -29 14 -65 20 -118 20 -65 0 -85 -4 -130 -28z"/>
<path d="M8012 5198 c-7 -7 -12 -24 -12 -38 0 -30 16 -50 41 -50 23 0 49 27
49 50 0 39 -52 64 -78 38z"/>
<path d="M7723 5156 l-43 -9 0 -53 c0 -47 -2 -54 -20 -54 -11 0 -20 -7 -20
-15 0 -8 9 -15 20 -15 19 0 20 -7 20 -115 0 -124 13 -175 48 -194 31 -17 124
-14 150 5 32 22 17 37 -18 19 -38 -20 -46 -19 -70 5 -18 18 -20 33 -20 150 l0
130 60 0 c47 0 60 3 60 15 0 12 -13 15 -60 15 l-59 0 -3 63 -3 62 -42 -9z"/>
<path d="M3780 5025 c0 -8 8 -15 18 -15 12 0 39 -43 95 -155 42 -85 77 -162
77 -170 0 -23 -45 -119 -63 -134 -15 -12 -17 -11 -17 7 0 45 -71 55 -85 12
-16 -51 43 -84 101 -57 37 18 73 88 180 346 39 96 65 146 77 149 9 2 17 11 17
19 0 11 -14 13 -62 11 -63 -3 -87 -20 -35 -26 15 -2 27 -6 27 -10 0 -13 -84
-212 -90 -212 -4 0 -78 160 -98 211 -2 4 7 9 19 11 12 2 24 9 27 16 3 9 -20
12 -92 12 -79 0 -96 -3 -96 -15z"/>
<path d="M4220 5025 c0 -9 9 -15 25 -15 l25 0 0 -145 0 -145 -25 0 c-16 0 -25
-6 -25 -15 0 -12 19 -15 110 -15 91 0 110 3 110 15 0 11 -11 15 -40 15 l-40 0
0 119 0 120 29 20 c38 27 45 26 59 -5 10 -20 18 -25 43 -22 39 4 55 35 33 67
-21 30 -81 28 -128 -4 l-36 -24 0 24 c0 24 -2 25 -70 25 -56 0 -70 -3 -70 -15z"/>
<path d="M4649 5017 c-54 -36 -48 -102 9 -95 35 4 51 32 34 59 -16 25 -16 26
30 34 31 6 41 3 62 -19 21 -20 26 -35 26 -76 0 -54 -1 -55 -49 -39 -43 15
-115 3 -148 -26 -22 -18 -28 -32 -28 -65 0 -35 6 -47 33 -71 28 -25 40 -29 90
-29 37 0 66 6 80 16 21 15 25 15 41 0 30 -27 121 -19 121 10 0 16 -16 19 -25
4 -17 -27 -25 11 -25 111 0 172 -27 209 -153 209 -50 0 -71 -5 -98 -23z m139
-173 c19 -13 22 -24 20 -57 -3 -34 -8 -44 -36 -60 -40 -24 -77 -12 -93 29 -11
30 4 89 24 98 25 10 63 5 85 -10z"/>
<path d="M5840 5018 c-58 -39 -80 -82 -80 -153 0 -71 22 -114 79 -152 42 -28
135 -32 188 -6 107 50 122 227 26 301 -30 22 -48 27 -107 30 -61 3 -76 1 -106
-20z m155 -29 c28 -27 35 -181 10 -228 -31 -60 -107 -62 -135 -3 -19 41 -24
151 -8 197 22 65 85 81 133 34z"/>
<path d="M6240 5023 c-38 -26 -49 -45 -50 -80 0 -48 39 -87 120 -119 83 -32
106 -53 91 -82 -24 -45 -121 -34 -165 18 -35 42 -46 38 -46 -20 0 -36 4 -50
14 -50 8 0 16 7 19 15 5 12 10 12 34 0 68 -36 181 -7 204 52 23 62 -14 109
-123 152 -94 37 -111 78 -43 101 41 14 104 -9 112 -40 3 -11 14 -20 24 -20 16
0 19 8 19 45 0 45 -13 58 -37 34 -8 -8 -17 -8 -31 0 -32 17 -114 13 -142 -6z"/>
<path d="M6520 5031 c0 -5 12 -11 28 -13 l27 -3 3 -147 3 -148 -31 0 c-20 0
-30 -5 -30 -15 0 -12 18 -15 100 -15 82 0 100 3 100 15 0 9 -9 15 -25 15 l-26
0 3 132 3 131 39 20 c35 19 41 19 65 6 26 -15 26 -16 29 -152 l3 -137 -26 0
c-16 0 -25 -6 -25 -15 0 -12 18 -15 100 -15 82 0 100 3 100 15 0 10 -10 15
-30 15 l-30 0 0 123 c0 137 4 145 68 168 26 9 37 8 57 -5 25 -16 25 -19 25
-151 l0 -135 -30 0 c-20 0 -30 -5 -30 -15 0 -12 18 -15 105 -15 87 0 105 3
105 15 0 10 -10 15 -30 15 l-30 0 0 120 c0 131 -9 164 -51 186 -44 22 -120 18
-160 -9 l-34 -23 -34 23 c-41 27 -116 31 -161 8 -27 -14 -30 -14 -30 0 0 12
-14 15 -75 15 -41 0 -75 -4 -75 -9z"/>
<path d="M7345 5028 c-106 -58 -133 -189 -58 -279 35 -41 79 -59 148 -59 73 0
167 45 135 65 -6 3 -24 -4 -41 -16 -42 -29 -109 -31 -139 -4 -28 25 -50 75
-50 115 l0 30 125 0 c118 0 125 1 125 20 0 40 -32 100 -65 120 -37 23 -145 28
-180 8z m109 -20 c22 -10 46 -56 46 -90 0 -5 -36 -8 -80 -8 -44 0 -80 4 -80 9
0 27 26 74 49 86 32 18 34 18 65 3z"/>
<path d="M7950 5025 c0 -9 9 -15 25 -15 l25 0 0 -145 0 -145 -30 0 c-20 0 -30
-5 -30 -15 0 -12 18 -15 106 -15 80 0 105 3 102 13 -3 6 -17 13 -31 15 l-27 3
0 160 0 159 -70 0 c-56 0 -70 -3 -70 -15z"/>
<path d="M8290 5029 c-107 -42 -139 -189 -63 -280 35 -42 79 -59 150 -59 58 0
123 27 123 50 0 14 -12 13 -35 -3 -60 -41 -146 -22 -170 37 -29 70 -14 190 29
225 16 14 90 21 101 10 3 -4 0 -18 -6 -32 -15 -34 2 -57 43 -57 20 0 31 6 37
22 21 58 -31 98 -124 97 -33 0 -71 -5 -85 -10z"/>
<path d="M8620 5023 c-38 -26 -49 -45 -50 -80 0 -48 39 -87 120 -119 83 -32
106 -53 91 -82 -24 -45 -121 -34 -165 18 -35 42 -46 38 -46 -20 0 -36 4 -50
14 -50 8 0 16 7 19 15 5 12 10 12 34 0 68 -36 181 -7 204 52 23 62 -14 109
-123 152 -94 37 -111 78 -43 101 41 14 104 -9 112 -40 3 -11 14 -20 24 -20 16
0 19 8 19 45 0 45 -13 58 -37 34 -8 -8 -17 -8 -31 0 -32 17 -114 13 -142 -6z"/>
</g>
</svg>
